<svg xmlns="http://www.w3.org/2000/svg" width="27.09" height="31.628" viewBox="0 0 27.09 31.628">
  <path id="Icon_awesome-staylinked" data-name="Icon awesome-staylinked" d="M23.572,18.017l.166.166L13.267,7.878a.66.66,0,0,0-.85-.031L8.888,10.533a.489.489,0,0,0-.068.751l4.195,3.961a.678.678,0,0,0,.862.031l.006-.006a.678.678,0,0,1,.862.031l5.174,5.008a.488.488,0,0,1-.055.751l-5.741,4.558a.687.687,0,0,1-.875-.025L3.893,16.507a.668.668,0,0,0-.856-.031L.215,18.626a.49.49,0,0,0-.074.751L13,31.456a.811.811,0,0,0,1.066-.049l12.2-10.1a.487.487,0,0,0,.043-.751Zm3.357-5.137L13.963.154a.767.767,0,0,0-1,.068L.222,10.206a.486.486,0,0,0-.074.751l2.605,2.568L13.329,23.7a.7.7,0,0,0,.881.025L17.3,21.33l-.018-.018.474-.37a.48.48,0,0,0,.055-.751L14.3,16.84a.7.7,0,0,0-.875-.031l-.006.006a.7.7,0,0,1-.875-.025L6.714,11.136a.485.485,0,0,1,.068-.751l5.679-4.4a.669.669,0,0,1,.856.031l9.88,9.794a.687.687,0,0,0,.868.031l2.821-2.205a.483.483,0,0,0,.043-.751Z" transform="translate(0.002 -0.001)" fill="#fff"/>
</svg>
