<svg xmlns="http://www.w3.org/2000/svg" width="23.255" height="19.742" viewBox="0 0 23.255 19.742">
  <path id="Icon_material-devices-other" data-name="Icon material-devices-other" d="M3.614,8.468H22.641V6H3.614A2.318,2.318,0,0,0,1.5,8.468V23.275a2.318,2.318,0,0,0,2.114,2.468H7.842V23.275H3.614Zm10.571,7.4H9.957v2.2a4.078,4.078,0,0,0,0,5.479v2.2h4.228v-2.2a4.078,4.078,0,0,0,0-5.479Zm-2.114,6.786a1.731,1.731,0,0,1-1.586-1.851,1.731,1.731,0,0,1,1.586-1.851,1.731,1.731,0,0,1,1.586,1.851A1.731,1.731,0,0,1,12.071,22.658ZM23.7,10.936H17.356A1.244,1.244,0,0,0,16.3,12.169V24.508a1.244,1.244,0,0,0,1.057,1.234H23.7a1.244,1.244,0,0,0,1.057-1.234V12.169A1.244,1.244,0,0,0,23.7,10.936ZM22.641,23.275H18.413V13.4h4.228Z" transform="translate(-1.5 -6)" fill="#fff"/>
</svg>
